PathFileType	4	(X/Y/Z)	s03c0202.trc
DataRate	CameraRate	NumFrames	NumMarkers	Units	OrigDataRate	OrigDataStartFrame	OrigNumFrames
200	200	5	52	mm	200	0	2000
Frame#	Time	racr			lacr			c7			jug			rlel			rdr			llel			ldr			s2			lic			ric			lasi			rasi			rpsi			lpsi			rgt			lgt			rth1			rth2			rth3			rth4			rlfc			rmfc			rsh1			rsh2			rsh3			rsh4			rlmal			rmmal			rcal			rtoe			rmt5			rmt1			lth1			lth2			lth4			lth3			llfc			lmfc			lsh1			lsh2			lsh3			lsh4			llmal			lmmal			lcal			ltoe			lmt1			lmt5			SBIKE			LBIKE			RBIKE			
		X1	Y1	Z1	X2	Y2	Z2	X3	Y3	Z3	X4	Y4	Z4	X5	Y5	Z5	X6	Y6	Z6	X7	Y7	Z7	X8	Y8	Z8	X9	Y9	Z9	X10	Y10	Z10	X11	Y11	Z11	X12	Y12	Z12	X13	Y13	Z13	X14	Y14	Z14	X15	Y15	Z15	X16	Y16	Z16	X17	Y17	Z17	X18	Y18	Z18	X19	Y19	Z19	X20	Y20	Z20	X21	Y21	Z21	X22	Y22	Z22	X23	Y23	Z23	X24	Y24	Z24	X25	Y25	Z25	X26	Y26	Z26	X27	Y27	Z27	X28	Y28	Z28	X29	Y29	Z29	X30	Y30	Z30	X31	Y31	Z31	X32	Y32	Z32	X33	Y33	Z33	X34	Y34	Z34	X35	Y35	Z35	X36	Y36	Z36	X37	Y37	Z37	X38	Y38	Z38	X39	Y39	Z39	X40	Y40	Z40	X41	Y41	Z41	X42	Y42	Z42	X43	Y43	Z43	X44	Y44	Z44	X45	Y45	Z45	X46	Y46	Z46	X47	Y47	Z47	X48	Y48	Z48	X49	Y49	Z49	X50	Y50	Z50	X51	Y51	Z51	X52	Y52	Z52	
0	0.0000	540.198513	1344.606028	-27.021191	559.935068	1393.421021	-321.026247	474.903958	1434.632914	-174.687580	500.163449	1259.265460	-183.908264	538.082809	1125.641871	154.906795	727.805987	987.652511	-1.340056	523.634788	1175.523067	-510.366516	719.102667	978.430213	-417.244369	-79.698473	1234.917744	-257.898813	123.309612	1220.962830	-418.043626	82.595194	1234.553019	-61.116705	114.993198	1148.463911	-384.023984	0.000000	0.000000	-0.000000	-45.340807	1281.227401	-213.991060	-30.824199	1273.323117	-294.703258	22.940141	1171.947290	-50.175258	32.497268	1122.130037	-454.952513	144.302067	1067.347446	-41.629551	231.018043	1050.961170	-46.917943	298.525840	997.063611	-53.689654	246.165508	1082.600133	-59.719224	401.345332	916.252176	-81.338419	400.654255	901.747878	-207.884811	347.928352	760.694258	-55.816919	333.462335	673.781347	-69.333628	276.510596	605.640530	-67.859075	357.184707	663.780447	-97.320817	215.227098	486.848665	-81.982542	235.455237	495.820932	-174.256236	157.673542	422.825394	-119.791468	461.829106	491.797651	-114.073954	348.475688	450.090794	-44.973787	372.229501	468.163308	-161.418227	125.749579	993.689131	-470.658634	194.653441	940.740195	-471.205474	222.718040	962.329526	-461.758382	227.861042	858.027409	-464.562300	309.001087	753.711719	-443.505816	301.898055	743.771107	-317.955421	211.495531	607.825952	-462.522727	191.226603	528.395594	-440.548892	128.545939	462.538357	-432.526451	218.650594	515.876657	-416.713173	59.386886	355.216011	-406.486090	103.227960	356.144009	-321.704293	-11.713870	345.048456	-355.493774	245.062687	168.206720	-354.753618	165.599803	217.927940	-316.906240	132.514236	215.720382	-427.019579	-216.440396	944.421823	-234.191881	-11.434294	80.463851	-434.806676	-11.706617	80.724193	-34.805919	
1	0.0050	540.439819	1344.049101	-26.802792	560.325070	1393.066862	-320.668386	475.216051	1434.197636	-174.407925	500.289095	1258.776332	-183.682808	538.266918	1125.390030	155.267849	727.813568	987.526242	-1.156901	524.063554	1175.748220	-510.479484	718.958326	978.409943	-417.020821	-79.582675	1235.144361	-257.908384	123.408660	1221.122032	-417.971370	82.642033	1234.519763	-61.037787	114.994405	1148.664841	-384.023590	0.000000	0.000000	-0.000000	-45.181602	1281.360271	-213.982897	-30.654588	1273.546657	-294.681760	22.928002	1171.907616	-50.175348	32.646402	1122.559944	-455.059563	144.185788	1067.084437	-41.915557	230.893386	1050.488349	-46.596024	298.105616	996.117291	-53.823485	246.096459	1081.845130	-59.753457	400.859042	914.743946	-81.578697	399.916914	900.430598	-207.965296	347.772080	759.178007	-55.879597	333.565139	672.205745	-69.382630	276.873120	603.886674	-67.886586	357.292810	662.325473	-97.401028	215.913438	484.958704	-81.953274	236.043226	493.954347	-174.270302	158.580006	420.594925	-119.748351	462.440563	490.991086	-114.050349	349.313098	448.733844	-44.963192	372.972815	466.967759	-161.395485	126.167641	994.441545	-470.550246	195.125109	941.547030	-470.996741	223.139729	963.148043	-461.494396	228.443894	858.825108	-464.480288	309.519202	754.517492	-443.542175	302.345592	744.360037	-317.998330	211.780245	608.668242	-462.608301	191.176738	529.413605	-440.573947	128.303549	463.677692	-432.652688	218.537172	516.803238	-416.686487	58.745534	356.516631	-406.478688	103.056566	357.189085	-321.963007	-12.425350	346.471781	-355.625258	243.981708	169.041637	-354.667079	164.697304	219.018496	-316.939281	131.593372	216.830508	-426.950052	-216.435550	944.435550	-234.175455	-11.451135	80.362849	-434.847183	-11.734105	80.789570	-34.822050	
2	0.0100	540.625716	1343.641453	-26.620658	560.649690	1392.703743	-320.265753	475.502850	1433.832780	-174.164549	500.329881	1258.303684	-183.474561	538.407452	1125.154478	155.688265	727.858517	987.432183	-0.950383	524.509797	1175.956899	-510.608930	718.886725	978.389903	-416.902942	-79.506544	1235.336590	-257.895615	123.492875	1221.297993	-417.928638	82.658314	1234.439465	-60.965290	114.962659	1148.852713	-384.074668	0.000000	0.000000	-0.000000	-45.064263	1281.482197	-213.951552	-30.548448	1273.778860	-294.660933	22.918983	1171.836245	-50.204197	32.783848	1122.963095	-455.169746	143.991347	1066.639164	-41.927171	230.670796	1049.736166	-46.732114	297.623979	995.299846	-53.884035	245.953791	1081.142258	-59.821288	400.218004	913.481067	-81.794575	399.204893	899.141969	-208.128380	347.562136	757.641095	-56.007023	333.710311	670.671226	-69.456425	277.200825	602.143095	-67.893424	357.353973	660.847894	-97.501545	216.606850	483.027500	-81.939086	236.701839	492.109947	-174.262874	160.104264	416.699784	-121.435552	463.052901	490.174826	-114.038277	350.148094	447.427586	-44.887443	373.681644	465.726921	-161.342764	126.499556	995.058466	-470.484423	195.547888	942.302616	-470.785095	223.475742	963.863780	-461.247238	228.951612	859.590172	-464.378477	309.924169	755.263572	-443.526869	302.615357	744.944115	-317.959182	212.008221	609.479234	-462.657516	191.077204	530.252075	-440.509223	127.977708	464.791597	-432.728423	218.370400	517.671326	-416.610843	58.047872	357.853966	-406.540039	101.988717	358.536796	-321.873312	-13.191608	347.857442	-355.731657	242.974641	170.092251	-354.546161	164.879451	221.059815	-316.538336	130.606595	217.980489	-426.936842	-216.436322	944.437752	-234.192002	-11.437242	80.362237	-434.844161	-11.690764	80.725428	-34.802818	
3	0.0150	540.779560	1343.243297	-26.425570	562.065714	1391.906535	-317.740892	475.717768	1433.268493	-171.431065	498.039980	1257.806750	-184.594510	538.552514	1124.827583	156.069374	727.998054	987.000232	-0.580012	524.928447	1176.143791	-510.729488	718.767323	978.228361	-416.589639	-79.457622	1235.516392	-257.913920	122.867248	1221.841229	-418.805751	82.796155	1234.230636	-60.839785	114.229831	1149.530927	-385.111467	0.000000	0.000000	-0.000000	-45.038502	1281.414840	-213.809758	-30.481172	1273.997472	-294.645988	22.882611	1171.745740	-50.211423	32.820925	1123.699296	-455.532945	143.915868	1066.210334	-41.995911	230.387407	1049.005007	-46.847017	297.217479	994.351700	-54.077576	245.812119	1080.310039	-59.882358	399.504436	912.135838	-82.081306	398.432802	897.859705	-208.271746	347.402001	756.098347	-56.156996	333.847688	669.138344	-69.592264	277.572980	600.482020	-67.686740	358.517243	660.181915	-97.599909	217.304929	481.051852	-81.887357	238.196129	489.551075	-173.275234	160.547968	415.161601	-121.078189	463.706641	489.260329	-113.935748	351.094116	445.705513	-45.128652	374.434373	464.614224	-161.299034	126.825929	995.661937	-470.369872	196.470469	942.168242	-468.882801	224.651252	963.179026	-459.089666	230.089192	859.380585	-462.495851	310.969970	755.108361	-441.826457	302.725145	745.663742	-317.938647	212.798013	609.563509	-461.313242	191.271204	530.054640	-438.556813	127.602034	465.892450	-432.742535	218.029512	519.118192	-414.742826	57.293823	359.196838	-406.625301	101.098371	359.967155	-321.933704	-14.022902	349.332614	-355.885212	241.924866	171.079948	-354.587754	161.988557	218.324315	-309.413120	130.319680	217.568741	-424.661220	-216.466331	944.442439	-234.487335	-11.432955	80.450909	-434.784383	-11.700691	80.732684	-34.803910	
4	0.0200	540.914547	1342.914348	-26.334888	561.954527	1392.085696	-318.402207	475.987524	1433.070170	-172.667949	497.929405	1258.162296	-185.878139	537.854052	1125.005511	155.665225	727.399174	987.738640	-1.589086	525.082484	1176.649766	-511.714318	718.717948	978.751420	-417.635763	-79.501936	1235.690163	-257.956504	123.917337	1222.816964	-420.338256	82.927589	1234.214328	-61.091743	115.180051	1150.602898	-386.810258	0.000000	0.000000	-0.000000	-44.890647	1281.501731	-213.795714	-30.561240	1274.335895	-294.553420	22.831255	1171.715764	-50.221175	32.901078	1124.025019	-455.648218	143.776110	1065.709659	-42.108629	230.140913	1048.202296	-47.085273	296.158023	993.663027	-55.020238	244.987139	1079.970240	-60.773566	398.526101	911.131291	-83.656506	397.739570	896.589911	-208.490215	346.393440	755.036290	-57.138681	333.269855	667.875079	-70.760368	278.035629	598.677336	-68.022904	358.305483	659.227459	-98.884250	218.090946	479.059020	-82.043266	238.053950	488.211872	-174.418782	160.994038	413.550933	-120.501472	464.378372	488.370678	-113.970662	351.981214	444.407109	-45.163598	375.191435	463.137765	-161.189367	127.043484	996.018439	-470.215178	196.531561	943.362462	-470.046988	224.311021	965.171780	-460.597613	229.870105	860.957460	-464.303761	310.980668	756.300204	-443.085114	302.878211	746.339848	-317.935905	212.423550	611.000960	-463.063563	191.004949	532.160413	-441.103021	127.232115	466.913053	-432.802396	217.631100	519.977441	-414.665710	56.130228	361.511308	-408.012516	100.096059	360.936331	-322.969512	-14.874902	350.798727	-356.016358	240.893254	173.253266	-355.773271	162.330200	221.498081	-311.350756	128.648155	220.240943	-426.774771	-216.672971	944.470529	-235.011806	-11.649289	81.280999	-435.363152	-11.715257	80.798918	-34.873473	
